<svg width="556" height="556" viewBox="0 0 556 556" fill="none" xmlns="http://www.w3.org/2000/svg">
<rect width="556" height="556" rx="45" fill="#6A283A"/>
<g clip-path="url(#clip0_21_3)">
<path d="M272.299 103.026C272.712 103.023 273.126 103.02 273.552 103.017C274.891 103.008 276.229 103.005 277.567 103.002C277.795 103.002 278.022 103.001 278.257 103.001C286.061 102.984 293.747 103.332 301.488 104.379C302.099 104.459 302.099 104.459 302.722 104.541C304.539 104.788 306.328 105.067 308.112 105.489C308.97 105.686 309.831 105.855 310.695 106.022C313.997 106.662 317.268 107.314 320.506 108.227C321.463 108.487 322.421 108.704 323.391 108.908C326.317 109.539 329.142 110.453 331.978 111.4C332.184 111.469 332.391 111.538 332.603 111.608C334.799 112.342 336.969 113.11 339.112 113.987C340.22 114.431 341.35 114.807 342.481 115.19C344.867 116.018 347.134 117.003 349.409 118.102C349.892 118.33 350.375 118.557 350.858 118.783C354.908 120.683 358.925 122.615 362.827 124.805C363.125 124.972 363.423 125.139 363.73 125.311C364.694 125.853 365.658 126.396 366.621 126.939C367.115 127.217 367.115 127.217 367.619 127.501C367.935 127.679 368.25 127.857 368.575 128.04C368.86 128.2 369.144 128.361 369.437 128.526C370.015 128.861 370.578 129.222 371.134 129.592C371.134 129.803 371.134 130.013 371.134 130.23C371.43 130.299 371.43 130.299 371.733 130.37C372.411 130.549 372.411 130.549 373.05 130.869C373.05 131.079 373.05 131.29 373.05 131.507C373.306 131.572 373.562 131.638 373.825 131.705C375.344 132.291 376.573 133.152 377.902 134.08C378.306 134.358 378.306 134.358 378.717 134.642C380.502 135.887 382.203 137.189 383.864 138.596C384.69 139.281 385.573 139.854 386.468 140.443C388.039 141.67 388.039 141.67 388.705 142.358C388.705 142.569 388.705 142.78 388.705 142.997C388.89 143.083 389.075 143.17 389.266 143.26C391.429 144.393 393.473 146.161 395.19 147.882C396.093 148.782 397.024 149.641 397.969 150.497C399.172 151.586 400.343 152.693 401.484 153.848C402.29 154.658 403.1 155.462 403.925 156.253C404.337 156.652 404.337 156.652 404.758 157.059C405.037 157.326 405.315 157.593 405.602 157.869C406.262 158.619 406.418 158.965 406.595 159.912C407.016 160.135 407.442 160.348 407.873 160.55C407.979 160.866 408.084 161.182 408.193 161.508C408.617 161.723 409.043 161.935 409.47 162.146C410.121 162.781 410.121 162.781 410.768 163.522C410.983 163.765 411.197 164.007 411.419 164.257C412.026 165.018 412.026 165.018 412.493 165.811C413.052 166.724 413.701 167.418 414.442 168.19C416.143 170.025 417.58 171.99 418.994 174.049C419.265 174.437 419.542 174.821 419.823 175.202C420.972 176.763 420.972 176.763 420.972 177.466C421.182 177.466 421.393 177.466 421.611 177.466C422.067 178.123 422.482 178.773 422.888 179.46C423.002 179.647 423.116 179.835 423.233 180.027C423.688 180.782 424.127 181.532 424.506 182.328C424.779 182.909 424.779 182.909 425.252 183.336C427.655 185.742 429.232 189.564 430.874 192.526C431.152 193.028 431.432 193.529 431.713 194.029C435.619 201.072 435.619 201.072 436.626 204.594C436.837 204.594 437.048 204.594 437.265 204.594C437.45 205.062 437.45 205.062 437.639 205.54C437.807 205.963 437.975 206.385 438.143 206.808C438.264 207.114 438.264 207.114 438.388 207.427C438.834 208.547 439.302 209.65 439.804 210.746C440.568 212.447 441.161 214.199 441.757 215.964C442.58 218.428 442.58 218.428 443.543 220.838C444.021 221.937 444.344 223.031 444.663 224.182C444.926 225.057 444.926 225.057 445.381 225.995C446.101 227.637 446.448 229.383 446.849 231.124C446.933 231.479 447.016 231.834 447.103 232.2C447.449 233.672 447.789 235.146 448.122 236.622C448.203 236.98 448.283 237.338 448.367 237.706C448.431 238.001 448.495 238.295 448.561 238.599C448.745 239.382 448.745 239.382 449.073 240.089C449.461 241.129 449.633 242.121 449.805 243.217C449.856 243.531 449.856 243.531 449.908 243.852C450.015 244.516 450.119 245.18 450.223 245.845C450.329 246.514 450.435 247.183 450.543 247.852C450.64 248.455 450.735 249.059 450.829 249.663C450.91 250.519 450.91 250.519 451.322 250.872C451.438 251.684 451.535 252.491 451.621 253.306C451.648 253.556 451.675 253.805 451.703 254.063C451.761 254.595 451.818 255.128 451.874 255.66C451.959 256.457 452.045 257.253 452.133 258.049C452.845 264.625 452.995 271.152 452.999 277.76C452.999 277.991 452.999 278.221 453 278.458C453.008 285.687 452.832 292.837 451.961 300.022C451.91 300.471 451.859 300.921 451.808 301.37C451.755 301.825 451.702 302.279 451.649 302.733C451.601 303.138 451.554 303.543 451.506 303.961C451.321 305.135 451.018 306.222 450.683 307.362C450.543 308.062 450.413 308.764 450.293 309.468C450.226 309.855 450.159 310.243 450.09 310.642C449.952 311.449 449.815 312.256 449.678 313.063C449.611 313.45 449.544 313.837 449.475 314.235C449.385 314.761 449.385 314.761 449.294 315.296C449.084 316.306 448.779 317.239 448.446 318.214C448.266 318.911 448.094 319.611 447.928 320.313C447.834 320.71 447.739 321.107 447.642 321.516C447.544 321.931 447.446 322.346 447.348 322.762C446.563 326.092 445.769 329.384 444.532 332.579C444.279 333.251 444.055 333.928 443.834 334.61C443.506 335.608 443.143 336.581 442.745 337.553C441.922 339.592 441.19 341.662 440.46 343.735C439.892 345.318 439.275 346.824 438.498 348.315C438.17 348.957 437.907 349.61 437.664 350.289C437.532 350.657 437.401 351.026 437.265 351.406C437.054 351.406 436.843 351.406 436.626 351.406C436.52 351.775 436.415 352.143 436.306 352.523C434.75 357.195 431.97 361.597 429.488 365.818C429.027 366.607 428.58 367.401 428.14 368.202C427.55 369.264 426.953 370.322 426.343 371.373C426.109 371.779 426.109 371.779 425.87 372.192C425.729 372.389 425.589 372.586 425.444 372.789C425.233 372.789 425.023 372.789 424.805 372.789C424.726 373.008 424.647 373.226 424.566 373.451C424.097 374.547 423.512 375.547 422.888 376.559C422.775 376.75 422.661 376.941 422.544 377.137C422.251 377.615 421.933 378.076 421.611 378.534C421.4 378.534 421.189 378.534 420.972 378.534C420.897 378.756 420.823 378.978 420.747 379.206C420.25 380.314 419.568 381.203 418.815 382.145C418.525 382.513 418.236 382.882 417.947 383.251C417.807 383.427 417.667 383.604 417.523 383.786C417.037 384.408 416.567 385.04 416.1 385.675C414.215 388.19 414.215 388.19 413.304 389.066C413.093 389.066 412.882 389.066 412.665 389.066C412.576 389.464 412.576 389.464 412.484 389.871C411.87 391.359 410.926 392.295 409.81 393.435C409.506 393.752 409.506 393.752 409.197 394.076C408.486 394.818 407.77 395.554 407.041 396.277C406.508 396.814 406.026 397.385 405.537 397.963C404.585 399.059 403.558 399.946 402.442 400.875C402.083 401.268 401.73 401.668 401.384 402.072C399.566 404.192 397.676 406.169 395.357 407.742C394.726 408.219 394.726 408.219 394.177 408.981C393.42 409.905 392.629 410.513 391.66 411.208C390.066 412.374 388.575 413.599 387.107 414.918C383.179 418.307 378.836 421.494 374.343 424.098C373.533 424.587 372.82 425.167 372.092 425.769C371.562 426.093 371.03 426.412 370.495 426.727C370.16 426.931 370.16 426.931 369.819 427.138C367.495 428.549 365.126 429.875 362.752 431.199C362.301 431.451 361.85 431.707 361.401 431.963C357.507 434.173 353.424 436.058 349.364 437.94C348.853 438.178 348.346 438.42 347.838 438.664C345.889 439.586 343.897 440.321 341.858 441.016C340.672 441.421 339.505 441.851 338.345 442.326C336.278 443.16 334.172 443.874 332.058 444.58C331.847 444.65 331.636 444.721 331.419 444.793C328.047 445.915 324.668 446.847 321.194 447.6C320.243 447.812 319.298 448.043 318.353 448.277C314.869 449.14 311.408 449.929 307.858 450.459C306.972 450.603 306.129 450.768 305.259 450.975C303.815 451.299 302.383 451.487 300.912 451.632C300.526 451.672 300.526 451.672 300.133 451.713C299.32 451.797 298.507 451.879 297.694 451.96C297.152 452.016 296.61 452.072 296.068 452.128C293.525 452.389 293.525 452.389 292.333 452.505C291.814 452.556 291.294 452.609 290.775 452.665C288.42 452.903 286.081 452.959 283.715 452.974C283.094 452.978 283.094 452.978 282.461 452.983C281.123 452.992 279.784 452.995 278.446 452.997C278.105 452.998 278.105 452.998 277.756 452.999C271.863 453.01 266.004 452.934 260.136 452.319C259.882 452.293 259.628 452.266 259.366 452.239C256.129 451.892 252.93 451.376 249.73 450.781C249.129 450.67 248.527 450.562 247.925 450.454C237.814 448.637 227.233 446.618 217.843 442.345C216.719 441.863 215.558 441.512 214.391 441.149C211.886 440.341 209.545 439.34 207.185 438.18C206.212 437.706 205.23 437.255 204.248 436.8C203.854 436.616 203.46 436.432 203.066 436.248C202.162 435.825 201.255 435.406 200.348 434.989C199.858 434.762 199.367 434.534 198.877 434.307C198.647 434.202 198.417 434.097 198.181 433.988C197.048 433.461 196.103 432.905 195.103 432.153C194.489 431.826 193.866 431.521 193.24 431.216C189.588 429.421 186.16 427.323 182.84 424.98C181.863 424.291 180.865 423.646 179.848 423.017C177.131 421.313 174.618 419.311 172.112 417.314C171.462 416.813 171.462 416.813 170.702 416.402C169.482 415.635 168.493 414.641 167.456 413.65C166.753 412.989 166.087 412.398 165.254 411.907C164.082 411.193 163.162 410.261 162.177 409.313C160.683 407.892 159.174 406.533 157.565 405.244C156.157 404.099 155.092 402.921 154.032 401.456C153.449 400.72 152.784 400.383 151.974 399.918C151.406 399.333 150.884 398.72 150.358 398.098C149.706 397.327 149.037 396.577 148.36 395.829C148.121 395.563 147.882 395.297 147.635 395.023C147.087 394.42 146.536 393.82 145.98 393.223C145.834 393.065 145.688 392.908 145.538 392.745C145.125 392.3 144.711 391.855 144.297 391.411C143.668 390.662 143.668 390.662 143.348 389.705C143.085 389.441 142.821 389.178 142.55 388.907C141.751 388.109 141.751 388.109 141.431 387.151C141.115 387.046 140.799 386.941 140.473 386.832C139.94 386.156 139.454 385.49 138.975 384.778C138.776 384.491 138.776 384.491 138.573 384.199C137.598 382.77 137.598 382.77 137.598 382.045C137.281 381.94 136.965 381.834 136.639 381.726C136.194 381.156 136.194 381.156 135.741 380.429C135.111 379.443 134.465 378.499 133.744 377.577C133.092 376.723 132.551 375.872 132.047 374.924C131.427 373.763 130.717 372.727 129.93 371.672C128.827 370.186 127.913 368.682 127.055 367.045C126.743 366.472 126.43 365.901 126.117 365.329C125.616 364.413 125.118 363.495 124.624 362.575C124.458 362.266 124.291 361.957 124.12 361.639C123.896 361.22 123.896 361.22 123.667 360.792C123.25 360.031 123.25 360.031 122.758 359.431C122.072 358.483 121.596 357.45 121.105 356.393C120.955 356.083 120.955 356.083 120.803 355.767C120.223 354.527 119.865 353.419 119.707 352.044C119.496 352.044 119.285 352.044 119.068 352.044C118.964 351.76 118.86 351.475 118.753 351.181C118.613 350.808 118.473 350.434 118.329 350.049C118.192 349.679 118.055 349.309 117.914 348.927C117.52 348.009 117.11 347.403 116.512 346.619C113.637 340.216 113.637 340.216 113.637 337.363C113.426 337.363 113.215 337.363 112.998 337.363C112.894 337.024 112.79 336.685 112.682 336.336C112.395 335.405 112.106 334.474 111.815 333.544C111.748 333.329 111.681 333.114 111.611 332.892C111.333 332.05 111.008 331.229 110.682 330.404C110.193 328.973 109.846 327.494 109.473 326.029C109.201 324.957 109.201 324.957 108.836 324.132C108.338 322.829 108.163 321.461 107.933 320.091C107.773 319.18 107.615 318.327 107.256 317.471C106.878 316.488 106.708 315.555 106.539 314.516C106.472 314.114 106.405 313.711 106.335 313.297C106.267 312.874 106.198 312.452 106.13 312.03C105.994 311.203 105.858 310.376 105.72 309.549C105.661 309.183 105.601 308.817 105.54 308.44C105.347 307.351 105.347 307.351 105.008 306.269C104.666 305.035 104.494 303.823 104.361 302.554C104.334 302.312 104.308 302.071 104.28 301.823C104.224 301.314 104.169 300.805 104.115 300.296C104.034 299.533 103.95 298.77 103.865 298.006C103.811 297.507 103.756 297.009 103.702 296.51C103.678 296.288 103.654 296.067 103.629 295.839C103.22 291.97 103.04 288.118 103.03 284.228C103.029 284 103.028 283.771 103.027 283.535C103.022 282.318 103.019 281.101 103.018 279.884C103.016 278.905 103.012 277.927 103.005 276.948C102.935 267.417 103.654 258.078 105.011 248.637C105.222 248.637 105.433 248.637 105.65 248.637C105.659 248.408 105.667 248.179 105.675 247.943C105.899 243.863 106.743 239.85 108.001 235.965C108.236 235.126 108.361 234.299 108.486 233.438C108.873 230.975 109.656 228.654 110.442 226.296C110.549 225.974 110.656 225.652 110.766 225.32C111.505 223.09 112.249 220.863 112.998 218.637C113.209 218.637 113.42 218.637 113.637 218.637C113.665 218.428 113.692 218.219 113.721 218.003C114.094 215.584 114.863 213.518 115.873 211.296C116.087 210.817 116.3 210.339 116.512 209.86C116.615 209.633 116.717 209.407 116.822 209.173C117.344 207.985 117.831 206.782 118.319 205.58C118.747 204.599 119.212 203.648 119.696 202.694C120.009 202.075 120.316 201.454 120.621 200.831C121.841 198.351 123.128 195.932 124.519 193.543C125.128 192.483 125.705 191.412 126.276 190.332C127.148 188.698 128.098 187.139 129.109 185.589C129.55 184.901 129.956 184.206 130.35 183.49C130.889 182.572 130.889 182.572 131.528 182.253C131.842 181.706 131.842 181.706 132.127 181.056C132.668 179.935 133.283 179.064 134.084 178.104C134.426 177.621 134.765 177.135 135.102 176.648C136.206 175.059 137.361 173.513 138.53 171.971C139.082 171.233 139.612 170.486 140.134 169.726C140.351 169.436 140.568 169.147 140.792 168.848C141.003 168.848 141.214 168.848 141.431 168.848C141.504 168.677 141.576 168.506 141.651 168.33C142.203 167.331 142.936 166.531 143.668 165.657C143.826 165.387 143.984 165.117 144.147 164.839C144.732 163.889 145.414 163.238 146.224 162.465C147.827 160.896 149.375 159.307 150.838 157.607C151.502 156.849 152.211 156.146 152.933 155.444C153.8 154.599 154.61 153.752 155.369 152.811C156.455 151.521 157.748 150.533 159.064 149.486C160.174 148.565 161.17 147.561 162.177 146.531C163.296 145.407 164.431 144.318 165.816 143.533C166.854 142.881 167.706 142.083 168.587 141.241C169.693 140.184 170.771 139.294 172.101 138.528C172.858 137.998 173.596 137.444 174.337 136.893C177.384 134.644 180.473 132.478 183.684 130.47C184.623 129.871 185.539 129.244 186.457 128.615C188.043 127.549 189.669 126.687 191.389 125.861C192.377 125.368 193.237 124.792 194.145 124.166C194.783 123.845 195.422 123.526 196.062 123.209C196.632 122.901 197.202 122.592 197.772 122.282C199.584 121.296 201.373 120.4 203.307 119.673C204.383 119.246 205.4 118.716 206.431 118.192C210.232 116.279 214.205 114.714 218.301 113.558C219.037 113.324 219.708 113.039 220.407 112.713C229.037 108.829 239.143 106.979 248.449 105.509C249.238 105.368 250.01 105.2 250.79 105.018C252.222 104.696 253.643 104.511 255.102 104.367C255.359 104.341 255.616 104.314 255.881 104.287C256.694 104.203 257.506 104.121 258.319 104.04C258.861 103.984 259.403 103.928 259.945 103.872C262.488 103.61 262.488 103.61 263.68 103.495C264.2 103.444 264.719 103.39 265.238 103.335C267.593 103.097 269.933 103.041 272.299 103.026ZM201.812 168.848C199.955 171.481 199.499 173.973 199.895 177.146C200.11 178.045 200.376 178.557 200.854 179.38C200.962 179.593 201.071 179.805 201.183 180.024C202.386 182.216 204.232 183.42 206.604 184.168C208.006 184.446 209.335 184.528 210.763 184.531C211.091 184.533 211.091 184.533 211.426 184.534C212.16 184.537 212.894 184.537 213.627 184.537C214.159 184.539 214.69 184.541 215.221 184.542C216.681 184.547 218.141 184.549 219.601 184.551C221.176 184.554 222.75 184.558 224.325 184.562C227.053 184.569 229.78 184.575 232.508 184.58C236.452 184.587 240.396 184.596 244.34 184.605C250.739 184.621 257.138 184.634 263.536 184.647C269.752 184.66 275.968 184.673 282.184 184.687C282.568 184.688 282.951 184.689 283.345 184.69C285.267 184.694 287.189 184.699 289.111 184.703C305.057 184.739 321.004 184.774 336.95 184.806C336.597 185.368 336.243 185.93 335.888 186.491C335.691 186.804 335.494 187.117 335.291 187.439C334.584 188.514 333.815 189.433 332.956 190.391C331.631 191.902 330.54 193.447 329.495 195.167C328.795 196.232 327.96 197.121 327.096 198.054C326.288 198.986 325.577 199.974 324.87 200.983C323.726 202.614 322.547 204.206 321.316 205.771C321.168 205.958 321.021 206.146 320.87 206.339C320.322 207.031 319.778 207.706 319.152 208.329C318.578 208.906 318.265 209.604 317.875 210.311C317.195 211.407 316.366 212.38 315.55 213.377C314.834 214.257 314.151 215.157 313.475 216.068C312.038 218.001 310.583 219.919 309.116 221.828C307.529 223.896 305.959 225.975 304.398 228.061C303.572 229.164 302.739 230.26 301.887 231.343C299.592 234.056 299.592 234.056 297.974 237.148C297.658 237.253 297.341 237.358 297.015 237.467C296.48 238.209 295.983 238.947 295.498 239.721C294.493 241.318 293.423 242.739 292.162 244.143C291.157 245.3 290.268 246.541 289.368 247.78C289.174 248.045 288.98 248.31 288.78 248.583C287.945 249.723 287.115 250.866 286.288 252.012C286.066 252.32 285.843 252.629 285.614 252.946C285.336 253.336 285.336 253.336 285.051 253.734C284.556 254.382 284.556 254.382 284.072 254.862C283.494 255.444 283.075 256.075 282.619 256.756C281.732 258.045 280.781 259.238 279.764 260.426C278.512 261.899 277.48 263.406 276.473 265.052C275.767 266.118 274.932 267.011 274.064 267.948C273.25 268.888 272.531 269.882 271.817 270.899C270.721 272.458 269.605 273.996 268.442 275.506C268.186 275.84 267.929 276.174 267.665 276.518C266.985 277.362 266.985 277.362 266.447 277.896C265.946 278.36 265.946 278.36 265.507 279.276C264.419 281.254 262.851 282.938 261.377 284.636C260.227 285.967 259.378 287.364 258.659 288.971C258.359 289.49 258.359 289.49 257.401 289.809C256.904 290.437 256.451 291.062 256.003 291.724C254.26 294.231 252.407 296.645 250.543 299.063C249.885 299.921 249.237 300.786 248.589 301.652C248.173 302.207 247.753 302.758 247.331 303.309C247.089 303.626 246.847 303.944 246.598 304.27C246.353 304.592 246.107 304.913 245.853 305.244C245.218 306.061 245.218 306.061 244.941 307.043C244.73 307.043 244.519 307.043 244.302 307.043C243.871 307.591 243.871 307.591 243.444 308.3C242.246 310.155 240.9 311.866 239.506 313.577C238.498 314.819 237.523 316.051 236.655 317.396C235.962 318.46 235.214 319.434 234.398 320.408C233.057 322.015 231.817 323.683 230.585 325.375C229.065 327.461 227.504 329.474 225.8 331.414C225.167 332.214 224.69 333.035 224.198 333.927C223.62 334.879 222.88 335.678 222.139 336.505C220.863 337.963 219.79 339.405 218.877 341.123C218.304 342.02 217.581 342.676 216.827 343.427C216.209 344.186 215.63 344.972 215.05 345.761C214.713 346.214 214.376 346.668 214.039 347.121C213.868 347.353 213.696 347.585 213.519 347.825C212.662 348.981 211.8 350.134 210.937 351.286C210.783 351.494 210.628 351.701 210.469 351.915C209.77 352.849 209.062 353.767 208.308 354.657C207.689 355.403 207.159 356.133 206.644 356.951C206.01 357.922 205.35 358.789 204.568 359.644C203.398 360.934 202.48 362.343 201.553 363.813C200.993 364.612 200.432 365.306 199.785 366.03C198.605 367.353 197.567 368.751 196.541 370.196C196.361 370.448 196.181 370.7 195.996 370.96C195.642 371.455 195.29 371.95 194.937 372.446C194.541 373.001 194.138 373.552 193.733 374.101C191.986 376.492 190.821 378.693 191.269 381.726C192.027 384.437 193.568 387.595 196.062 389.066C199.067 390.436 202.387 390.158 205.61 390.148C206.262 390.149 206.913 390.151 207.565 390.153C209.351 390.157 211.137 390.156 212.923 390.154C214.851 390.152 216.778 390.156 218.706 390.159C222.263 390.165 225.82 390.165 229.376 390.164C232.662 390.162 235.948 390.163 239.234 390.164C239.676 390.165 240.117 390.165 240.558 390.165C241.222 390.165 241.887 390.166 242.552 390.166C248.729 390.17 254.907 390.171 261.085 390.169C261.318 390.169 261.55 390.168 261.79 390.168C263.68 390.168 265.571 390.167 267.461 390.166C274.835 390.163 282.209 390.165 289.583 390.173C297.871 390.181 306.159 390.185 314.447 390.183C315.331 390.183 316.215 390.182 317.099 390.182C317.316 390.182 317.534 390.182 317.758 390.182C321.042 390.181 324.325 390.184 327.609 390.188C331.343 390.193 335.077 390.193 338.812 390.187C340.717 390.185 342.622 390.184 344.527 390.189C346.272 390.193 348.016 390.192 349.761 390.186C350.391 390.184 351.022 390.185 351.653 390.189C356.75 390.282 356.75 390.282 361.17 387.989C361.401 387.713 361.631 387.436 361.869 387.151C362.146 386.855 362.422 386.559 362.707 386.254C364.28 384.146 364.725 382.104 364.425 379.492C363.825 376.721 361.882 374.727 359.632 373.109C357.964 372.303 356.485 372.032 354.622 372.033C354.387 372.032 354.153 372.031 353.912 372.03C353.13 372.027 352.348 372.032 351.566 372.036C350.999 372.036 350.431 372.035 349.864 372.033C348.307 372.031 346.75 372.035 345.193 372.04C343.513 372.044 341.833 372.043 340.153 372.042C337.244 372.041 334.334 372.044 331.425 372.05C327.218 372.058 323.011 372.06 318.804 372.061C311.979 372.063 305.153 372.07 298.328 372.079C291.698 372.088 285.068 372.094 278.438 372.098C277.825 372.099 277.825 372.099 277.199 372.099C275.149 372.101 273.098 372.102 271.048 372.103C254.039 372.113 237.031 372.13 220.022 372.151C221.42 369.687 221.42 369.687 222.104 368.845C222.245 368.668 222.387 368.492 222.532 368.31C222.679 368.129 222.826 367.949 222.977 367.763C224.764 365.529 226.525 363.272 228.069 360.861C228.648 360.023 228.648 360.023 229.387 359.325C230.184 358.492 230.705 357.729 231.304 356.752C232.219 355.269 233.235 354.028 234.415 352.751C235.234 351.821 235.91 350.822 236.607 349.799C237.443 348.613 238.325 347.467 239.211 346.319C240.792 344.264 242.357 342.198 243.903 340.116C244.194 339.726 244.194 339.726 244.492 339.328C244.672 339.085 244.851 338.842 245.036 338.592C245.195 338.378 245.355 338.163 245.519 337.942C245.955 337.332 245.955 337.332 246.219 336.406C246.535 336.3 246.852 336.195 247.177 336.086C248.018 335.01 248.707 333.978 249.354 332.775C250.042 331.53 250.979 330.56 251.936 329.516C253.903 327.442 253.903 327.442 254.845 324.916C254.856 324.743 254.868 324.569 254.879 324.395C255.668 322.942 256.489 321.523 257.29 320.029C257.66 319.313 258.025 318.588 258.384 317.867C258.482 317.642 258.582 317.414 258.68 317.189C258.778 316.965 258.879 316.739 278.537 316.26C279.816 316.125 281.092 315.927 282.371 315.725C284.289 315.388 286.216 315.075 288.144 314.762C290.002 314.46 291.861 314.164 293.719 313.878C295.717 313.578 297.711 313.302 299.706 313.035C301.617 312.75 303.53 312.474 305.443 312.203C307.584 311.894 309.717 311.595 311.848 311.3C314.004 310.982 316.161 310.683 318.316 310.379C320.425 310.075 322.528 309.781 324.63 309.485C326.711 309.186 328.791 308.89 330.871 308.587C333.094 308.288 335.317 307.985 337.539 307.684C339.752 307.385 341.964 307.087 344.178 306.79C346.351 306.493 348.523 306.198 350.695 305.9C352.857 305.604 355.019 305.309 357.181 305.016C359.341 304.719 361.502 304.427 363.663 304.131C365.805 303.835 367.948 303.544 370.091 303.248C372.237 302.951 374.383 302.657 376.529 302.36C378.673 302.064 380.818 301.77 382.962 301.475C385.096 301.179 387.232 300.886 389.367 300.59C391.5 300.296 393.635 300.001 395.77 299.707C397.903 299.412 400.038 299.12 402.172 298.825C404.304 298.53 406.439 298.236 408.573 297.941C410.705 297.646 412.838 297.352 414.971 297.057C417.103 296.763 419.238 296.469 421.37 296.174C423.501 295.88 425.636 295.586 427.767 295.291C429.901 294.997 432.035 294.702 434.168 294.408C436.301 294.113 438.436 293.819 440.57 293.524C442.703 293.229 444.838 292.935 446.971 292.64C449.105 292.345 451.24 292.051 453.373 291.756C455.506 291.462 457.641 291.168 459.775 290.873C461.908 290.578 464.043 290.284 466.177 289.989C468.31 289.695 470.445 289.401 472.579 289.106C474.712 288.812 476.847 288.518 478.981 288.223C481.114 287.928 483.25 287.634 485.383 287.339C487.517 287.044 489.652 286.75 491.786 286.455C493.919 286.16 496.055 285.866 498.188 285.571C500.321 285.276 502.456 284.982 504.59 284.687C506.723 284.393 508.859 284.099 510.992 283.804C513.125 283.509 515.26 283.215 517.394 282.92C519.528 282.625 521.663 282.331 523.797 282.036C525.93 281.741 528.066 281.447 530.199 281.152C532.333 280.857 534.469 280.563 536.602 280.268C538.736 279.973 540.871 279.679 543.005 279.384C545.138 279.089 547.273 278.795 549.406 278.5C551.54 278.205 553.675 277.911 555.808 277.616" fill="#EEDBD3"/>
</g>
<defs>
<clipPath id="clip0_21_3">
<rect width="350" height="350" fill="white" transform="translate(103 103)"/>
</clipPath>
</defs>
</svg>
